<?xml version="1.0" encoding="iso-8859-1"?>
<!-- Generator: Adobe Illustrator 19.0.0, SVG Export Plug-In . SVG Version: 6.00 Build 0)  -->
<svg version="1.1" id="Capa_1" xmlns="http://www.w3.org/2000/svg" xmlns:xlink="http://www.w3.org/1999/xlink" x="0px" y="0px"
	 viewBox="0 0 460 460" style="enable-background:new 0 0 460 460;" xml:space="preserve">
<g>
	<path style="fill:#FFB76E;" d="M223.7,398.574h90.673c-0.881-10.71-6.679-21.816-14.879-29.998H223.7V398.574z"/>
	<path style="fill:#FFCC99;" d="M223.7,275.732h75.842c8.186-8.189,13.969-19.294,14.834-29.998H223.7V275.732z"/>
	<path style="fill:#FFCC99;" d="M223.7,214.306h90.698c-0.78-10.671-6.478-21.766-14.592-29.998H223.7V214.306z"/>
	<path style="fill:#FFB76E;" d="M223.7,91.454h75.534c8.27-8.14,14.156-19.255,15.119-29.998H223.7V91.454z"/>
	<rect x="223.7" y="0.03" style="fill:#FFB76E;" width="90.8" height="29.998"/>
	<path style="fill:#FFCC99;" d="M223.7,368.576h-63.194c-8.2,8.182-13.998,19.288-14.879,29.998H223.7V368.576z"/>
	<rect x="223.7" y="430.002" style="fill:#FFB76E;" width="90.8" height="29.998"/>
	<rect x="145.5" y="430.002" style="fill:#FFCC99;" width="78.2" height="29.998"/>
	<path style="fill:#FFB76E;" d="M223.7,245.734h-78.077c0.865,10.704,6.648,21.809,14.834,29.998H223.7V245.734z"/>
	<path style="fill:#FFB76E;" d="M223.7,184.308h-63.505c-8.115,8.232-13.812,19.327-14.592,29.998H223.7V184.308z"/>
	<path style="fill:#FFCC99;" d="M223.7,61.456h-78.053c0.963,10.743,6.851,21.858,15.122,29.998h62.93V61.456z"/>
	<rect x="145.5" y="0.03" style="fill:#FFCC99;" width="78.2" height="29.998"/>
	<path style="fill:#F46A1A;" d="M354.5,58.396V0h-40v58.396c0,1.015-0.055,2.036-0.147,3.06
		c-0.963,10.743-6.849,21.858-15.119,29.998c-5.358,5.273-11.712,9.3-18.372,11.16l-50.857,14.21l61.624,17.217
		c0.265,0.074,0.526,0.164,0.79,0.241c0.679,0.198,1.357,0.401,2.03,0.619c0.452,0.146,0.901,0.303,1.351,0.458
		c0.506,0.175,1.01,0.353,1.513,0.539c0.484,0.179,0.966,0.359,1.446,0.547c0.469,0.184,0.935,0.378,1.401,0.571
		c0.461,0.191,0.924,0.374,1.381,0.574C331.925,124.308,354.5,91.437,354.5,58.396z"/>
	<path style="fill:#F46A1A;" d="M314.5,242.984c0,0.912-0.049,1.83-0.123,2.75c-0.865,10.704-6.648,21.809-14.834,29.998
		c-5.422,5.425-11.893,9.571-18.682,11.469L230,301.411l61.63,17.219c3.382,0.946,6.691,2.14,9.914,3.55
		c30.379-13.288,52.956-46.153,52.956-79.195v-13.099h-40V242.984z"/>
	<path style="fill:#F46A1A;" d="M145.5,401.374c0-0.929,0.05-1.863,0.127-2.8c0.881-10.71,6.679-21.816,14.879-29.998
		c5.412-5.4,11.865-9.527,18.634-11.419L230,342.947l-61.63-17.218c-3.382-0.946-6.691-2.14-9.914-3.55
		c-30.379,13.288-52.956,46.153-52.956,79.195V460h40V401.374z"/>
	<path style="fill:#FF926E;" d="M298.76,136.444c-0.48-0.188-0.963-0.368-1.446-0.547c-0.502-0.185-1.007-0.364-1.513-0.539
		c-0.45-0.155-0.899-0.311-1.351-0.458c-0.673-0.218-1.351-0.421-2.03-0.619c-0.264-0.077-0.525-0.167-0.79-0.241l-61.624-17.217
		l-50.866-14.211c-6.659-1.861-13.013-5.887-18.37-11.159c-8.272-8.14-14.159-19.255-15.122-29.998
		c-0.092-1.024-0.147-2.045-0.147-3.06V0h-40v58.396c0,33.042,22.578,65.909,52.958,79.196c0.435,0.188,0.873,0.363,1.308,0.544
		c0.502,0.209,1.005,0.418,1.511,0.616c0.45,0.176,0.902,0.344,1.354,0.512c0.549,0.203,1.1,0.399,1.654,0.589
		c0.402,0.139,0.804,0.278,1.208,0.41c0.954,0.309,1.911,0.607,2.877,0.877l112.49,31.428c6.9,1.929,13.469,6.184,18.945,11.739
		c8.115,8.232,13.812,19.327,14.592,29.998c0.061,0.83,0.102,1.657,0.102,2.48v13.099h40v-13.099
		c0-33.043-22.578-65.91-52.959-79.196c-0.457-0.2-0.92-0.383-1.381-0.574C299.695,136.822,299.229,136.628,298.76,136.444z"/>
	<path style="fill:#D5310E;" d="M230,301.411l-50.86-14.209c-6.789-1.898-13.26-6.044-18.682-11.469
		c-8.186-8.189-13.969-19.294-14.834-29.998c-0.074-0.92-0.123-1.838-0.123-2.75v-13.099h-40v13.099
		c0,33.042,22.577,65.907,52.956,79.195c3.223,1.41,6.533,2.604,9.914,3.55L230,342.947l50.86,14.209
		c6.769,1.892,13.221,6.019,18.634,11.419c8.2,8.182,13.998,19.288,14.879,29.998c0.077,0.937,0.127,1.871,0.127,2.8V460h40v-58.626
		c0-33.042-22.577-65.907-52.956-79.195c-3.223-1.41-6.533-2.604-9.914-3.55L230,301.411z"/>
	<path style="fill:#F46A1A;" d="M145.5,216.786c0-0.823,0.042-1.65,0.102-2.48c0.78-10.671,6.478-21.766,14.592-29.998
		c5.476-5.556,12.045-9.811,18.945-11.739L230,158.36l-61.63-17.219c-0.965-0.271-1.923-0.567-2.877-0.877
		c-0.404-0.131-0.806-0.271-1.208-0.41c-0.553-0.19-1.105-0.386-1.654-0.589c-0.453-0.167-0.905-0.336-1.354-0.512
		c-0.506-0.199-1.009-0.407-1.511-0.616c-0.436-0.182-0.874-0.356-1.306-0.546c-30.381,13.281-52.96,46.158-52.96,79.195v13.099h40
		V216.786z"/>
</g>
<g>
</g>
<g>
</g>
<g>
</g>
<g>
</g>
<g>
</g>
<g>
</g>
<g>
</g>
<g>
</g>
<g>
</g>
<g>
</g>
<g>
</g>
<g>
</g>
<g>
</g>
<g>
</g>
<g>
</g>
</svg>
